<svg xmlns="http://www.w3.org/2000/svg" width="38" height="38"><path d="M33.25 29.293a3.954 3.954 0 0 1-3.957 3.957H8.707a3.957 3.957 0 0 1-3.957-3.957V8.707A3.96 3.96 0 0 1 8.707 4.75h20.586a3.957 3.957 0 0 1 3.957 3.957Zm0 0" style="stroke:none;fill-rule:nonzero;fill:#3b5999;fill-opacity:1"/><path d="M27.21 19.793h-2.667v10.293h-3.957V19.793H18.21v-3.168h2.375v-1.906c0-2.778 1.152-4.426 4.426-4.426h2.699v3.164h-1.813c-1.273 0-1.355.477-1.355 1.367v1.801h3.168Zm0 0" style="stroke:none;fill-rule:nonzero;fill:#fff;fill-opacity:1"/></svg>