<svg xmlns="http://www.w3.org/2000/svg" xml:space="preserve" width="256" height="256"><g style="stroke:none;stroke-width:0;stroke-dasharray:none;stroke-linecap:butt;stroke-linejoin:miter;stroke-miterlimit:10;fill:none;fill-rule:nonzero;opacity:1"><path d="M44.913 26.682H15.231C6.951 26.682.229 23.071.02 14.841c-.004.131-.02.258-.02.39v31.303c8.265 10.233 20.908 16.784 35.087 16.784h.682c8.28 0 12.002 3.611 12.211 11.841.003-.131.02-.258.02-.39C48 83.181 44.181 90 35.769 90h39C83.181 90 90 83.181 90 74.769c0-32.037-20.186-48.087-45.087-48.087z" style="stroke:none;stroke-width:1;stroke-dasharray:none;stroke-linecap:butt;stroke-linejoin:miter;stroke-miterlimit:10;fill:#1b94de;fill-rule:nonzero;opacity:1" transform="matrix(2.81 0 0 2.81 1.407 1.407)"/><path d="M90 74.769c0-24.901-20.186-45.087-45.087-45.087H15.231C6.951 29.682.229 23.071.02 14.841c-.004.131-.02.258-.02.39C0 6.819 6.819 0 15.231 0h59.538C83.181 0 90 6.819 90 15.231v59.538" style="stroke:none;stroke-width:1;stroke-dasharray:none;stroke-linecap:butt;stroke-linejoin:miter;stroke-miterlimit:10;fill:#1da1f2;fill-rule:nonzero;opacity:1" transform="matrix(2.81 0 0 2.81 1.407 1.407)"/><path d="M0 74.769V43.534c8.265 10.233 20.908 16.784 35.087 16.784h.682c8.28 0 15.002 6.611 15.211 14.841.003-.131.02-.258.02-.39C51 83.181 44.181 90 35.769 90H15.231C6.819 90 0 83.181 0 74.769z" style="stroke:none;stroke-width:1;stroke-dasharray:none;stroke-linecap:butt;stroke-linejoin:miter;stroke-miterlimit:10;fill:#1989cd;fill-rule:nonzero;opacity:1" transform="matrix(2.81 0 0 2.81 1.407 1.407)"/><path d="M11.857 23.521c7.437 0 11.505-6.162 11.505-11.505 0-.175 0-.349-.012-.523A8.225 8.225 0 0 0 25.367 9.4a8.048 8.048 0 0 1-2.323.636A4.058 4.058 0 0 0 24.822 7.8a8.09 8.09 0 0 1-2.568.981 4.048 4.048 0 0 0-6.891 3.688A11.48 11.48 0 0 1 7.03 8.244a4.047 4.047 0 0 0 1.252 5.398 4.014 4.014 0 0 1-1.835-.506v.051a4.044 4.044 0 0 0 3.244 3.964 4.039 4.039 0 0 1-1.826.069 4.048 4.048 0 0 0 3.778 2.808 8.115 8.115 0 0 1-5.984 1.676 11.444 11.444 0 0 0 6.198 1.813" style="stroke:none;stroke-width:1;stroke-dasharray:none;stroke-linecap:butt;stroke-linejoin:miter;stroke-miterlimit:10;fill:#fff;fill-rule:nonzero;opacity:1" transform="matrix(7.9 0 0 7.9 5.36 5.36)"/></g></svg>